<?xml version="1.0" standalone="no"?>
<!DOCTYPE svg PUBLIC "-//W3C//DTD SVG 20010904//EN"
 "http://www.w3.org/TR/2001/REC-SVG-20010904/DTD/svg10.dtd">
<svg version="1.0" xmlns="http://www.w3.org/2000/svg"
 width="100.000000pt" height="94.000000pt" viewBox="0 0 100.000000 94.000000"
 preserveAspectRatio="xMidYMid meet">
<metadata>
Created by potrace 1.10, written by Peter Selinger 2001-2011
</metadata>
<g transform="translate(0.000000,94.000000) scale(0.100000,-0.100000)"
fill="#000000" stroke="none">
<path d="M231 803 c-63 -49 -81 -66 -81 -78 0 -8 -7 -18 -15 -23 -14 -7 -16
-43 -16 -249 l0 -240 27 -42 c15 -22 32 -41 38 -41 5 0 20 -10 34 -22 21 -20
35 -23 115 -24 51 -1 95 -3 100 -4 9 -2 136 -2 140 0 1 2 40 4 86 5 59 2 88 7
95 17 6 8 19 17 29 21 9 4 20 14 24 24 4 9 15 25 25 35 16 16 18 39 18 267 0
216 -2 250 -16 262 -9 7 -20 24 -25 36 -5 13 -20 28 -35 33 -14 6 -32 17 -40
25 -13 12 -55 15 -248 15 -205 0 -235 -2 -255 -17z m486 -43 c10 -11 22 -20
28 -20 5 0 22 -16 38 -34 l27 -35 0 -225 0 -225 -44 -44 c-41 -42 -47 -45
-114 -51 -45 -5 -71 -3 -73 3 -2 6 -2 52 1 103 l5 93 29 0 c17 0 31 6 34 15 3
8 13 27 23 42 24 33 24 39 -2 67 -16 17 -29 22 -49 17 -37 -7 -52 11 -41 50 7
27 11 29 57 29 l49 0 5 53 c6 55 -2 72 -32 72 -10 0 -18 5 -18 10 0 6 -20 10
-45 10 -25 0 -45 -4 -45 -10 0 -5 -12 -10 -26 -10 -31 0 -64 -17 -64 -32 0 -6
-8 -17 -17 -24 -13 -9 -18 -28 -19 -71 -2 -81 -2 -83 -19 -83 -9 0 -25 -8 -36
-19 -26 -24 -23 -89 4 -102 9 -5 25 -13 35 -18 14 -7 17 -23 17 -102 l0 -94
-88 3 c-77 3 -90 7 -117 30 -17 15 -30 32 -30 40 0 7 -7 15 -15 18 -13 5 -15
40 -15 226 0 205 1 222 20 245 11 14 20 32 20 39 0 8 7 14 16 14 9 0 27 9 41
20 24 19 41 20 234 20 197 0 210 -1 226 -20z m-60 -147 c8 -21 -3 -27 -60 -33
l-52 -5 -3 -64 c-4 -84 0 -94 33 -79 21 9 29 9 40 -3 12 -12 13 -20 3 -47 -13
-33 -26 -40 -45 -21 -25 25 -33 -4 -33 -122 l0 -120 -37 3 -38 3 -1 106 c-1
111 -7 145 -24 134 -6 -3 -20 -3 -31 0 -15 5 -18 10 -10 18 6 6 11 20 11 30 0
14 5 17 16 13 31 -12 42 11 37 73 -5 53 -3 63 21 94 23 30 35 36 69 39 60 4
98 -2 104 -19z"/>
</g>
</svg>
