<?xml version="1.0" standalone="no"?>
<!DOCTYPE svg PUBLIC "-//W3C//DTD SVG 20010904//EN"
 "http://www.w3.org/TR/2001/REC-SVG-20010904/DTD/svg10.dtd">
<svg version="1.0" xmlns="http://www.w3.org/2000/svg"
 width="40.000000pt" height="46.000000pt" viewBox="0 0 40.000000 46.000000"
 preserveAspectRatio="xMidYMid meet">
<metadata>
Created by potrace 1.10, written by Peter Selinger 2001-2011
</metadata>
<g transform="translate(0.000000,46.000000) scale(0.100000,-0.100000)"
fill="#000000" stroke="none">
<path d="M67 362 c-26 -27 -27 -33 -27 -131 0 -56 5 -111 10 -122 19 -34 64
-49 148 -49 93 0 142 24 153 75 19 89 6 195 -29 230 -23 23 -31 25 -126 25
-99 0 -103 -1 -129 -28z m243 -24 c17 -19 20 -35 20 -112 0 -123 -3 -126 -136
-126 -129 0 -134 5 -134 129 0 73 3 88 22 108 19 21 30 23 114 23 83 0 95 -2
114 -22z"/>
<path d="M146 268 c-22 -30 -20 -60 4 -86 24 -25 58 -28 85 -8 22 16 26 76 6
100 -20 24 -77 21 -95 -6z m84 -43 c0 -18 -7 -26 -24 -31 -14 -3 -30 -3 -35 1
-17 10 -13 53 6 64 25 13 53 -5 53 -34z"/>
</g>
</svg>
