<?xml version="1.0" standalone="no"?>
<!DOCTYPE svg PUBLIC "-//W3C//DTD SVG 20010904//EN"
 "http://www.w3.org/TR/2001/REC-SVG-20010904/DTD/svg10.dtd">
<svg version="1.0" xmlns="http://www.w3.org/2000/svg"
 width="100.000000pt" height="94.000000pt" viewBox="0 0 100.000000 94.000000"
 preserveAspectRatio="xMidYMid meet">
<metadata>
Created by potrace 1.10, written by Peter Selinger 2001-2011
</metadata>
<g transform="translate(0.000000,94.000000) scale(0.050000,-0.050000)"
fill="#000000" stroke="none">
<path d="M414 1646 c-81 -13 -187 -91 -261 -190 l-63 -86 0 -472 0 -471 57
-82 c31 -45 93 -107 138 -138 l82 -57 621 0 c342 0 645 7 674 15 60 17 238
183 238 223 0 15 13 53 30 85 23 44 30 136 30 410 0 467 -32 563 -242 717
l-68 50 -590 3 c-324 1 -615 -2 -646 -7z m1230 -151 c165 -118 204 -252 190
-650 -13 -351 -30 -416 -137 -509 l-87 -75 -592 0 c-563 -1 -595 1 -643 39
-28 22 -61 40 -73 40 -12 0 -22 12 -22 27 0 15 -18 43 -40 63 -62 56 -62 857
0 935 22 28 40 61 40 73 0 12 13 22 28 22 15 0 49 18 75 39 78 66 1170 62
1261 -4z"/>
<path d="M815 1187 c-19 -5 -35 -22 -35 -36 0 -14 -13 -37 -30 -51 -47 -39
-41 -375 7 -433 49 -58 157 -112 173 -87 7 12 41 34 76 51 302 143 366 293
180 424 -35 25 -74 45 -85 45 -12 0 -39 18 -61 40 -40 40 -161 65 -225 47z
m160 -147 c28 -22 60 -40 73 -41 12 0 49 -22 81 -49 l60 -48 -48 -51 c-26 -28
-59 -51 -71 -51 -13 0 -45 -18 -71 -41 -95 -82 -129 -49 -132 131 -3 210 9
227 108 150z"/>
</g>
</svg>
